<svg xmlns="http://www.w3.org/2000/svg" width="10.826" height="21.432" viewBox="0 0 10.826 21.432"><defs><style>.a{opacity:0.5;}</style></defs><g class="a"><path d="M77.049,11.415H79.4v9.672a.346.346,0,0,0,.346.346h3.983a.346.346,0,0,0,.346-.346V11.46h2.7a.346.346,0,0,0,.343-.306l.41-3.561a.346.346,0,0,0-.343-.385H84.073V4.976c0-.673.362-1.014,1.077-1.014h2.034a.346.346,0,0,0,.346-.346V.348A.346.346,0,0,0,87.184,0h-2.8c-.02,0-.064,0-.128,0A5.371,5.371,0,0,0,80.74,1.324,3.683,3.683,0,0,0,79.515,4.6v2.61H77.049a.346.346,0,0,0-.346.346v3.515A.346.346,0,0,0,77.049,11.415Z" transform="translate(-76.703)"/></g></svg>