<svg xmlns="http://www.w3.org/2000/svg" width="21.436" height="21.434" viewBox="0 0 21.436 21.434"><defs><style>.a{opacity:0.5;}</style></defs><g class="a"><path d="M2.752.012H18.685a2.759,2.759,0,0,1,2.751,2.751V18.7a2.758,2.758,0,0,1-2.751,2.75H2.752A2.759,2.759,0,0,1,0,18.7V2.763A2.76,2.76,0,0,1,2.752.012ZM15.616,2.393a.968.968,0,0,0-.965.966V5.668a.967.967,0,0,0,.965.966h2.422A.968.968,0,0,0,19,5.668V3.359a.969.969,0,0,0-.965-.966H15.616Zm3.4,6.684H17.126a6.267,6.267,0,0,1,.276,1.841,6.563,6.563,0,0,1-6.664,6.455,6.563,6.563,0,0,1-6.663-6.455,6.3,6.3,0,0,1,.276-1.841H2.383v9.055a.853.853,0,0,0,.851.85H18.161a.852.852,0,0,0,.851-.85ZM10.738,6.512a4.24,4.24,0,0,0-4.3,4.172,4.24,4.24,0,0,0,4.3,4.171,4.241,4.241,0,0,0,4.306-4.171A4.24,4.24,0,0,0,10.738,6.512Z" transform="translate(0 -0.012)"/></g></svg>