<svg xmlns="http://www.w3.org/2000/svg" width="26.177" height="21.432" viewBox="0 0 26.177 21.432"><defs><style>.a{opacity:0.5;}</style></defs><g class="a"><path d="M25.582,30.57a9.923,9.923,0,0,1-1.266.461,5.6,5.6,0,0,0,1.139-2,.422.422,0,0,0-.618-.492A9.964,9.964,0,0,1,21.892,29.7a5.622,5.622,0,0,0-9.553,4.016,5.732,5.732,0,0,0,.046.726A14.387,14.387,0,0,1,2.511,29.2a.422.422,0,0,0-.692.054A5.628,5.628,0,0,0,2.4,35.726a4.76,4.76,0,0,1-.752-.336.422.422,0,0,0-.627.359c0,.025,0,.05,0,.075a5.639,5.639,0,0,0,2.751,4.833c-.143-.014-.286-.035-.428-.062a.422.422,0,0,0-.481.544,5.618,5.618,0,0,0,4.116,3.767A9.942,9.942,0,0,1,1.66,46.422a10.167,10.167,0,0,1-1.19-.07.422.422,0,0,0-.277.775,15.155,15.155,0,0,0,8.195,2.4,14.579,14.579,0,0,0,11.3-4.961A15.725,15.725,0,0,0,23.6,34.319c0-.154,0-.31-.007-.465A10.924,10.924,0,0,0,26.1,31.191a.422.422,0,0,0-.522-.621Z" transform="translate(0.002 -28.097)"/></g></svg>